SplineFontDB: 3.2
FontName: Untitled1
FullName: Untitled1
FamilyName: Untitled1
Weight: Regular
Copyright: Copyright (c) 2025, Bastien
UComments: "2025-9-5: Created with FontForge (http://fontforge.org)"
Version: 001.000
ItalicAngle: 0
UnderlinePosition: -100
UnderlineWidth: 50
Ascent: 800
Descent: 200
InvalidEm: 0
LayerCount: 2
Layer: 0 0 "Arri+AOgA-re" 1
Layer: 1 0 "Avant" 0
XUID: [1021 617 -1891235068 2807329]
OS2Version: 0
OS2_WeightWidthSlopeOnly: 0
OS2_UseTypoMetrics: 1
CreationTime: 1757094609
ModificationTime: 1757143787
OS2TypoAscent: 0
OS2TypoAOffset: 1
OS2TypoDescent: 0
OS2TypoDOffset: 1
OS2TypoLinegap: 0
OS2WinAscent: 0
OS2WinAOffset: 1
OS2WinDescent: 0
OS2WinDOffset: 1
HheadAscent: 0
HheadAOffset: 1
HheadDescent: 0
HheadDOffset: 1
OS2Vendor: 'PfEd'
DEI: 91125
Encoding: ISO8859-1
Compacted: 1
UnicodeInterp: none
NameList: AGL For New Fonts
DisplaySize: -48
AntiAlias: 1
FitToEm: 0
WinInfo: 0 18 14
Grid
-1024 -63.99609375 m 4
 2048 -63.99609375 l 1028
-1024 -34 m 0
 2048 -34 l 1024
-1024 934 m 0
 2048 934 l 1024
-1024 772 m 0
 2048 772 l 1024
-1024 881 m 0
 2048 881 l 1024
  Named: "Uppercase_Accent_Y"
-1020 687 m 0
 2052 687 l 1024
  Named: "Lowercase_Accent_Y"
-1024 929 m 0
 2048 929 l 1024
-1024 -192 m 0
 2048 -192 l 1024
2048 708 m 0
 -1024 708 l 0
 2048 708 l 0
-1024 716 m 0
 2048 716 l 1024
-1024 527 m 0
 2048 527 l 1024
-1024 -7 m 0
 2048 -7 l 1024
-1018 535 m 0
 2054 535 l 1024
EndSplineSet
BeginChars: 256 95

StartChar: exclam
Encoding: 33 33 1
Width: 325
VWidth: 980
Flags: HW
LayerCount: 2
Fore
SplineSet
68 708 m 1
 266 708 l 1
 256 234 l 1
 78 234 l 1
 68 708 l 1
271 104 m 0
 271 77 259 50 240 31 c 0
 221 12 194 0 167 0 c 0
 140 0 113 12 94 31 c 0
 75 50 64 77 64 104 c 0
 64 131 75 158 94 177 c 0
 113 196 140 207 167 207 c 0
 194 207 221 196 240 177 c 0
 259 158 271 131 271 104 c 0
EndSplineSet
EndChar

StartChar: quotedbl
Encoding: 34 34 2
Width: 411
VWidth: 980
Flags: HW
LayerCount: 2
Fore
SplineSet
16 757 m 1
 203 757 l 1
 203 566 l 1
 16 566 l 1
 16 757 l 1
407 566 m 1
 220 566 l 1
 220 757 l 1
 407 757 l 1
 407 566 l 1
EndSplineSet
EndChar

StartChar: numbersign
Encoding: 35 35 3
Width: 651
VWidth: 980
Flags: HW
LayerCount: 2
Fore
SplineSet
65 364 m 1
 65 526 l 1
 603 526 l 1
 603 364 l 1
 65 364 l 1
65 102 m 1
 65 263 l 1
 603 263 l 1
 603 102 l 1
 65 102 l 1
65 0 m 1
 200 708 l 1
 362 708 l 1
 227 0 l 1
 65 0 l 1
306 0 m 1
 441 708 l 1
 603 708 l 1
 467 0 l 1
 306 0 l 1
EndSplineSet
EndChar

StartChar: dollar
Encoding: 36 36 4
Width: 651
VWidth: 980
Flags: HW
LayerCount: 2
Fore
SplineSet
341 716 m 0
 445 716 543 665 601 578 c 1
 468 485 l 1
 440 528 393 555 341 555 c 0
 279 555 222 556 222 503 c 0
 222 470 250 458 285 451 c 2
 416 424 l 2
 547 396 643 337 643 210 c 0
 643 52 504 -8 327 -8 c 0
 211 -8 100 43 24 131 c 1
 157 224 l 1
 202 179 263 154 327 154 c 0
 390 154 446 156 446 210 c 0
 446 244 418 257 382 265 c 2
 252 293 l 2
 122 321 24 377 24 503 c 0
 24 660 165 716 341 716 c 0
260 737 m 1
 421 737 l 1
 408 -28 l 1
 246 -28 l 1
 260 737 l 1
EndSplineSet
EndChar

StartChar: percent
Encoding: 37 37 5
Width: 852
VWidth: 980
Flags: HW
LayerCount: 2
Fore
SplineSet
98 0 m 1
 578 708 l 1
 775 708 l 1
 295 0 l 1
 98 0 l 1
197 716 m 1
 303 716 371 654 371 550 c 0
 371 446 303 384 197 384 c 0
 91 384 22 446 22 550 c 0
 22 654 91 716 197 716 c 1
 197 555 l 1
 153 555 219 568 219 550 c 0
 219 532 153 545 197 545 c 0
 241 545 174 532 174 550 c 0
 174 568 241 555 197 555 c 1
 197 716 l 1
677 -8 m 1
 571 -8 502 55 502 159 c 0
 502 263 571 325 677 325 c 0
 783 325 852 263 852 159 c 0
 852 55 783 -8 677 -8 c 1
 677 154 l 1
 721 154 654 141 654 159 c 0
 654 177 721 163 677 163 c 0
 633 163 699 177 699 159 c 0
 699 141 633 154 677 154 c 1
 677 -8 l 1
EndSplineSet
EndChar

StartChar: ampersand
Encoding: 38 38 6
Width: 705
VWidth: 980
Flags: HW
LayerCount: 2
Fore
SplineSet
326 716 m 0
 409 716 489 685 551 629 c 1
 462 524 l 1
 425 559 377 579 326 579 c 0
 266 579 219 559 219 506 c 0
 219 470 242 438 277 428 c 1
 699 428 l 1
 699 288 l 1
 277 288 l 1
 130 358 l 1
 75 387 42 444 42 506 c 0
 42 653 165 716 326 716 c 0
130 358 m 1
 277 288 l 1
 238 283 209 250 209 211 c 0
 209 159 251 133 307 133 c 0
 389 133 458 193 470 274 c 1
 543 148 l 1
 476 51 364 -8 246 -8 c 0
 106 -8 12 74 12 211 c 0
 12 282 61 343 130 358 c 1
423 358 m 1
 590 358 l 1
 590 149 l 1
 679 0 l 1
 482 0 l 1
 423 149 l 1
 423 358 l 1
EndSplineSet
EndChar

StartChar: quotesingle
Encoding: 39 39 7
Width: 158
VWidth: 980
Flags: HW
LayerCount: 2
Fore
SplineSet
0 784 m 1
 192 784 l 1
 183 587 l 1
 10 587 l 1
 0 784 l 1
EndSplineSet
EndChar

StartChar: parenleft
Encoding: 40 40 8
Width: 359
VWidth: 980
Flags: HW
LayerCount: 2
Fore
SplineSet
201 757 m 1
 354 757 l 1
 285 624 249 476 249 326 c 0
 249 176 285 27 354 -106 c 1
 201 -106 l 1
 111 20 62 171 62 326 c 0
 62 481 111 631 201 757 c 1
EndSplineSet
EndChar

StartChar: parenright
Encoding: 41 41 9
Width: 359
VWidth: 980
Flags: HW
LayerCount: 2
Fore
SplineSet
16 757 m 1
 169 757 l 1
 259 631 308 481 308 326 c 0
 308 171 259 20 169 -106 c 1
 16 -106 l 1
 85 27 121 176 121 326 c 0
 121 476 85 624 16 757 c 1
EndSplineSet
EndChar

StartChar: asterisk
Encoding: 42 42 10
Width: 576
VWidth: 980
Flags: HW
LayerCount: 2
Fore
SplineSet
275 525 m 1
 80 559 l 1
 139 740 l 1
 316 652 l 1
 275 525 l 1
349 550 m 1
 258 375 l 1
 104 487 l 1
 242 628 l 1
 349 550 l 1
349 628 m 1
 487 487 l 1
 333 375 l 1
 242 550 l 1
 349 628 l 1
275 652 m 1
 452 740 l 1
 510 559 l 1
 316 525 l 1
 275 652 l 1
229 589 m 1
 200 784 l 1
 391 784 l 1
 362 589 l 1
 229 589 l 1
EndSplineSet
EndChar

StartChar: plus
Encoding: 43 43 11
Width: 651
VWidth: 980
Flags: HW
LayerCount: 2
Fore
SplineSet
84 203 m 1
 84 364 l 1
 584 364 l 1
 584 203 l 1
 84 203 l 1
235 33 m 1
 235 534 l 1
 432 534 l 1
 432 33 l 1
 235 33 l 1
EndSplineSet
EndChar

StartChar: comma
Encoding: 44 44 12
Width: 248
VWidth: 980
Flags: HW
LayerCount: 2
Fore
SplineSet
35 102 m 1
 232 102 l 1
 202 -101 l 1
 24 -101 l 1
 35 102 l 1
EndSplineSet
EndChar

StartChar: hyphen
Encoding: 45 45 13
Width: 651
VWidth: 980
Flags: HW
LayerCount: 2
Fore
SplineSet
84 203 m 1
 84 364 l 1
 584 364 l 1
 584 203 l 1
 84 203 l 1
EndSplineSet
EndChar

StartChar: period
Encoding: 46 46 14
Width: 271
VWidth: 980
Flags: HW
LayerCount: 2
Fore
SplineSet
243 96 m 0
 243 69 231 42 212 23 c 0
 193 4 166 -8 139 -8 c 0
 112 -8 85 4 66 23 c 0
 47 42 36 69 36 96 c 0
 36 123 47 150 66 169 c 0
 85 188 112 199 139 199 c 0
 166 199 193 188 212 169 c 0
 231 150 243 123 243 96 c 0
EndSplineSet
EndChar

StartChar: slash
Encoding: 47 47 15
Width: 449
VWidth: 980
Flags: HW
LayerCount: 2
Fore
SplineSet
248 716 m 1
 446 716 l 1
 214 -8 l 1
 16 -8 l 1
 248 716 l 1
EndSplineSet
EndChar

StartChar: zero
Encoding: 48 48 16
Width: 596
VWidth: 980
Flags: HW
LayerCount: 2
Fore
SplineSet
306 555 m 0
 233 555 222 439 222 354 c 0
 222 269 233 154 306 154 c 0
 379 154 391 269 391 354 c 0
 391 439 379 555 306 555 c 0
306 716 m 0
 497 716 588 562 588 354 c 0
 588 146 497 -8 306 -8 c 0
 115 -8 24 146 24 354 c 0
 24 562 115 716 306 716 c 0
EndSplineSet
EndChar

StartChar: one
Encoding: 49 49 17
Width: 596
VWidth: 980
Flags: HW
LayerCount: 2
Fore
SplineSet
265 708 m 1
 419 708 l 1
 419 162 l 1
 551 162 l 1
 551 0 l 1
 419 0 l 1
 222 0 l 1
 65 0 l 1
 65 162 l 1
 222 162 l 1
 222 520 l 5
 65 456 l 1
 65 624 l 1
 265 708 l 1
EndSplineSet
EndChar

StartChar: two
Encoding: 50 50 18
Width: 596
VWidth: 980
Flags: HW
LayerCount: 2
Fore
SplineSet
13 560 m 1
 66 657 169 716 279 716 c 0
 441 716 563 641 563 493 c 0
 563 397 485.416016373 330.918833898 413 268 c 2
 299 162 l 1
 563 162 l 1
 563 0 l 1
 24 0 l 1
 24 108 l 1
 322 397 l 2
 347.564102713 421.792032497 374 452 374 483 c 0
 374 533 331 563 279 563 c 0
 223 563 172 532 146 483 c 1
 13 560 l 1
EndSplineSet
EndChar

StartChar: three
Encoding: 51 51 19
Width: 596
VWidth: 980
Flags: HW
LayerCount: 2
Fore
SplineSet
65 708 m 1
 547 708 l 1
 547 599 l 1
 380 428 l 1
 401 428 l 2
 498.29296875 428 588 351 588 233 c 0
 588 71 455 -7 279 -7 c 4
 173 -7 73 44 13 131 c 1
 146 224 l 1
 176 180 214 147 279 147 c 0
 350 147 391 178 391 233 c 0
 391 282 350 306 303 306 c 2
 238 306 l 1
 189 428 l 1
 315 563 l 1
 65 563 l 1
 65 708 l 1
EndSplineSet
EndChar

StartChar: four
Encoding: 52 52 20
Width: 596
VWidth: 980
Flags: HW
LayerCount: 2
Fore
SplineSet
324 383 m 1
 502 425 l 1
 502 262 l 1
 596 262 l 1
 596 100 l 1
 502 100 l 1
 502 0 l 1
 324 0 l 1
 324 100 l 1
 24 100 l 1
 24 262 l 1
 281 708 l 1
 478 708 l 1
 222 262 l 1
 324 262 l 1
 324 383 l 1
EndSplineSet
EndChar

StartChar: five
Encoding: 53 53 21
Width: 596
VWidth: 980
Flags: HW
LayerCount: 2
Fore
SplineSet
186 269 m 1
 57 269 l 1
 57 546 l 1
 57 708 l 1
 234 708 l 1
 536 708 l 5
 536 546 l 5
 228 546 l 1
 228 405 l 1
 251 442 302 468 363 468 c 0
 502 468 588 379 588 237 c 0
 588 72 474 -7 295 -7 c 0
 172 -7 72 45 13 132 c 1
 145 225 l 1
 171 177 214 146 286 146 c 0
 352 146 397 177 397 237 c 0
 397 290 366 325 312 325 c 0
 262 325 227 294 215 269 c 1
 186 269 l 1
EndSplineSet
EndChar

StartChar: six
Encoding: 54 54 22
Width: 596
VWidth: 980
Flags: HW
LayerCount: 2
Fore
SplineSet
571 596 m 1
 445 506 l 1
 421 545 379 568 334 568 c 0
 240.1640625 568 225.872406038 491.88192766 222.703786973 390.393522155 c 1
 240 442 301.03515625 467 371 467 c 0
 512 467 596 377 596 234 c 0
 596 74 475 -7 306 -7 c 4
 125 -7 24 107 24 327 c 0
 24 588 110 716 334 716 c 0
 427 716 507 680 571 596 c 1
222 234 m 0
 222 176 251 138 306 138 c 0
 364 138 399 174 399 234 c 0
 399 293 367 329 310 329 c 0
 253 329 222 293 222 234 c 0
EndSplineSet
EndChar

StartChar: seven
Encoding: 55 55 23
Width: 596
VWidth: 980
Flags: HW
LayerCount: 2
Fore
SplineSet
24 546 m 1
 24 708 l 1
 564 708 l 5
 564 546 l 5
 298 0 l 1
 100 0 l 1
 367 546 l 5
 24 546 l 1
EndSplineSet
EndChar

StartChar: eight
Encoding: 56 56 24
Width: 596
VWidth: 980
Flags: HW
HStem: -7 137<246.991 365.009> 312 105<248.342 363.658> 587 129<247.439 364.561>
VStem: 24 198<156.709 285.664> 49 177<438.624 563.569> 386 177<438.624 563.569> 390 198<156.709 285.664>
LayerCount: 2
Fore
SplineSet
306 587 m 0
 256 587 226 557 226 502 c 0
 226 447 256 417 306 417 c 0xec
 356 417 386 447 386 502 c 0
 386 557 356 587 306 587 c 0
306 716 m 0
 449 716 563 651 563 514 c 0
 563 438 517 392 464 371 c 1
 516 362 588 316 588 210 c 0xf2
 588 58 469 -7 306 -7 c 0
 143 -7 24 58 24 210 c 0
 24 316 96 362 148 371 c 1
 95 392 49 438 49 514 c 0xec
 49 651 163 716 306 716 c 0
306 312 m 4
 253 312 222 276 222 221 c 0
 222 166 253 130 306 130 c 0
 359 130 390 166 390 221 c 0xf2
 390 276 359 312 306 312 c 4
EndSplineSet
EndChar

StartChar: nine
Encoding: 57 57 25
Width: 596
VWidth: 980
Flags: HW
LayerCount: 2
Fore
SplineSet
132 200 m 1
 169 165 217 146 268 146 c 0
 369.323486803 146 394.34572225 219.989092225 399.984774232 321.426536077 c 1
 368.175973835 277.526740764 316.542452119 248 256 248 c 0
 119 248 35 339 35 478 c 0
 35 634 152 716 317 716 c 0
 497 716 598 588 598 401 c 0
 598 135 516 -8 268 -8 c 0
 168 -8 75 38 13 116 c 1
 132 200 l 1
401 478 m 0
 401 527 367 555 317 555 c 0
 267 555 232 527 232 478 c 0
 232 423 263 386 317 386 c 0
 371 386 401 423 401 478 c 0
EndSplineSet
EndChar

StartChar: colon
Encoding: 58 58 26
Width: 297
VWidth: 980
Flags: HW
LayerCount: 2
Fore
SplineSet
257 96 m 0
 257 69 245 42 226 23 c 0
 207 4 180 -8 153 -8 c 0
 126 -8 99 4 80 23 c 0
 61 42 50 69 50 96 c 0
 50 123 61 150 80 169 c 0
 99 188 126 199 153 199 c 0
 180 199 207 188 226 169 c 0
 245 150 257 123 257 96 c 0
257 431 m 0
 257 404 245 377 226 358 c 0
 207 339 180 327 153 327 c 0
 126 327 99 339 80 358 c 0
 61 377 50 404 50 431 c 0
 50 458 61 485 80 504 c 0
 99 523 126 534 153 534 c 0
 180 534 207 523 226 504 c 0
 245 485 257 458 257 431 c 0
EndSplineSet
EndChar

StartChar: semicolon
Encoding: 59 59 27
Width: 297
VWidth: 980
Flags: HW
LayerCount: 2
Fore
SplineSet
257 96 m 0
 257 69 245 42 226 23 c 0
 207 4 180 -8 153 -8 c 0
 126 -8 99 4 80 23 c 0
 61 42 50 69 50 96 c 0
 50 123 61 150 80 169 c 0
 99 188 126 199 153 199 c 0
 180 199 207 188 226 169 c 0
 245 150 257 123 257 96 c 0
85 102 m 1
 282 102 l 1
 202 -101 l 1
 24 -101 l 1
 85 102 l 1
EndSplineSet
EndChar

StartChar: less
Encoding: 60 60 28
Width: 607
VWidth: 980
Flags: HW
LayerCount: 2
Fore
SplineSet
24 182 m 1
 24 344 l 1
 599 615 l 1
 599 418 l 1
 24 182 l 1
24 182 m 1
 24 344 l 1
 599 109 l 1
 599 -88 l 1
 24 182 l 1
EndSplineSet
EndChar

StartChar: equal
Encoding: 61 61 29
Width: 651
VWidth: 980
Flags: HW
LayerCount: 2
Fore
SplineSet
65 344 m 1
 65 506 l 1
 603 506 l 1
 603 344 l 1
 65 344 l 1
603 182 m 1
 603 21 l 1
 65 21 l 1
 65 182 l 1
 603 182 l 1
EndSplineSet
EndChar

StartChar: greater
Encoding: 62 62 30
Width: 607
VWidth: 980
Flags: HW
LayerCount: 2
Fore
SplineSet
599 182 m 1
 24 418 l 1
 24 615 l 1
 599 344 l 1
 599 182 l 1
599 182 m 1
 24 -88 l 1
 24 109 l 1
 599 344 l 1
 599 182 l 1
EndSplineSet
EndChar

StartChar: question
Encoding: 63 63 31
Width: 558
VWidth: 980
Flags: HW
LayerCount: 2
Fore
SplineSet
13 578 m 1
 86 666 194 716 308 716 c 0
 456 716 570 662 570 529 c 0
 570 409 423 419 380 319 c 0
 369 292 366 263 366 234 c 1
 169 234 l 1
 169 241 287 394 351 478 c 0
 363 493 373 510 373 529 c 0
 373 558 342 555 308 555 c 0
 246 555 187 529 145 485 c 1
 13 578 l 1
371 96 m 0
 371 69 360 42 341 23 c 0
 322 4 295 -8 268 -8 c 0
 241 -8 214 4 195 23 c 0
 176 42 164 69 164 96 c 0
 164 123 176 150 195 169 c 0
 214 188 241 199 268 199 c 0
 295 199 322 188 341 169 c 0
 360 150 371 123 371 96 c 0
EndSplineSet
EndChar

StartChar: at
Encoding: 64 64 32
Width: 950
VWidth: 980
Flags: HW
LayerCount: 2
Fore
SplineSet
828 107 m 1
 828 -42 l 1
 716 -67 602 -80 487 -80 c 0
 210 -80 23 73 23 340 c 0
 23 607 210 760 487 760 c 0
 756 760 952 636 952 386 c 0
 952 288 894 200 804 161 c 1
 699 144 l 1
 530 210 l 1
 629 322 l 1
 729 290 l 1
 755 315 770 350 770 386 c 0
 770 537 650 610 487 610 c 0
 316 610 204 509 204 340 c 0
 204 171 316 70 487 70 c 0
 602 70 716 82 828 107 c 1
629 532 m 1
 778 532 l 1
 679 210 l 1
 530 210 l 1
 629 532 l 1
579 371 m 1
 639 456 l 1
 604 506 548 536 487 536 c 0
 181 536 0 327 0 14 c 0
 0 -378 305 144 487 144 c 0
 581 144 650 231 629 322 c 1
 652 423 l 1
 634 346 566 293 487 293 c 0
 326 293 0 -586 0 14 c 0
 0 270 209 386 487 386 c 0
 518 386 549 381 579 371 c 1
EndSplineSet
EndChar

StartChar: A
Encoding: 65 65 33
Width: 673
VWidth: 980
Flags: HW
LayerCount: 2
Fore
SplineSet
345 708 m 1
 444 708 l 1
 674 0 l 1
 477 0 l 1
 296 708 l 1
 345 708 l 1
246 708 m 1
 394 708 l 1
 211 0 l 1
 16 0 l 1
 246 708 l 1
164 282 m 1
 526 282 l 1
 526 144 l 1
 164 144 l 1
 164 282 l 1
EndSplineSet
EndChar

StartChar: B
Encoding: 66 66 34
Width: 662
VWidth: 980
Flags: HW
LayerCount: 2
Fore
SplineSet
65 708 m 1
 339 708 l 2
 488 708 601 648 601 512 c 0
 601 378 487 320 339 320 c 1
 65 377 l 1
 65 433 l 1
 339 433 l 2
 377 433 404 454 404 490 c 0
 404 526 377 546 339 546 c 2
 65 546 l 1
 65 708 l 1
65 377 m 1
 339 377 l 2
 500 377 635 343 635 203 c 0
 635 56 504 0 339 0 c 2
 65 0 l 1
 163 162 l 1
 339 162 l 2
 396 162 437 188 437 241 c 0
 437 294 396 320 339 320 c 2
 65 320 l 1
 65 377 l 1
65 708 m 1
 262 708 l 1
 262 0 l 1
 65 0 l 1
 65 708 l 1
EndSplineSet
EndChar

StartChar: C
Encoding: 67 67 35
Width: 656
VWidth: 980
Flags: HW
LayerCount: 2
Fore
SplineSet
553 491 m 1
 509 532 451 555 391 555 c 0
 280 555 222 471 222 354 c 0
 222 237 280 154 391 154 c 0
 459 154 506 175 553 224 c 1
 686 131 l 1
 613 43 505 -8 391 -8 c 0
 167 -8 24 131 24 354 c 0
 24 577 167 716 391 716 c 0
 516 716 603 678 686 584 c 1
 553 491 l 1
EndSplineSet
EndChar

StartChar: D
Encoding: 68 68 36
Width: 673
VWidth: 980
Flags: HW
LayerCount: 2
Fore
SplineSet
65 546 m 1
 65 708 l 1
 311 708 l 2
 530 708 674 579 674 364 c 0
 674 141 534 0 311 0 c 2
 65 0 l 1
 65 162 l 1
 311 162 l 2
 421 162 477 247 477 364 c 0
 477 473 416 546 311 546 c 2
 65 546 l 1
65 708 m 1
 262 708 l 1
 262 0 l 1
 65 0 l 1
 65 708 l 1
EndSplineSet
EndChar

StartChar: E
Encoding: 69 69 37
Width: 596
VWidth: 980
Flags: HW
LayerCount: 2
Fore
SplineSet
65 708 m 1
 262 708 l 1
 262 0 l 1
 65 0 l 1
 65 708 l 1
163 546 m 1
 163 708 l 1
 551 708 l 1
 551 546 l 1
 163 546 l 1
163 273 m 1
 163 435 l 1
 490 435 l 1
 490 273 l 1
 163 273 l 1
163 0 m 1
 163 162 l 1
 581 162 l 1
 581 0 l 1
 163 0 l 1
EndSplineSet
EndChar

StartChar: F
Encoding: 70 70 38
Width: 591
VWidth: 980
Flags: HW
LayerCount: 2
Fore
SplineSet
65 708 m 1
 262 708 l 1
 262 0 l 1
 65 0 l 1
 65 708 l 1
163 546 m 1
 163 708 l 1
 546 708 l 1
 546 546 l 1
 163 546 l 1
163 273 m 1
 163 435 l 1
 485 435 l 1
 485 273 l 1
 163 273 l 1
EndSplineSet
EndChar

StartChar: G
Encoding: 71 71 39
Width: 705
VWidth: 980
Flags: HW
LayerCount: 2
Fore
SplineSet
566 493 m 1
 519 533 460 555 398 555 c 0
 285 555 222 472 222 354 c 0
 222 239 286 162 398 162 c 0
 498 162 599 165 699 170 c 1
 699 8 l 1
 599 3 498 0 398 0 c 0
 173 0 24 133 24 354 c 0
 24 578 171 716 398 716 c 0
 512 716 621 669 699 586 c 1
 566 493 l 1
502 8 m 1
 502 354 l 1
 699 354 l 1
 699 8 l 1
 502 8 l 1
699 435 m 1
 699 273 l 1
 362 273 l 1
 362 435 l 1
 699 435 l 1
EndSplineSet
EndChar

StartChar: H
Encoding: 72 72 40
Width: 662
VWidth: 980
Flags: HW
LayerCount: 2
Fore
SplineSet
65 708 m 1
 262 708 l 1
 262 0 l 1
 65 0 l 1
 65 708 l 1
417 0 m 1
 417 708 l 1
 614 708 l 1
 614 0 l 1
 417 0 l 1
163 309 m 1
 163 471 l 1
 515 471 l 1
 515 309 l 1
 163 309 l 1
EndSplineSet
EndChar

StartChar: I
Encoding: 73 73 41
Width: 248
VWidth: 980
Flags: HW
LayerCount: 2
Fore
SplineSet
30 708 m 1
 227 708 l 1
 227 0 l 1
 30 0 l 1
 30 708 l 1
EndSplineSet
EndChar

StartChar: J
Encoding: 74 74 42
Width: 521
VWidth: 980
Flags: HW
LayerCount: 2
Fore
SplineSet
297 708 m 1
 495 708 l 1
 495 248 l 2
 495 93 401 -8 247 -8 c 0
 151 -8 85 17 13 81 c 1
 145 174 l 1
 174 143 204 130 247 130 c 0
 300 130 297 186 297 248 c 2
 297 708 l 1
EndSplineSet
EndChar

StartChar: K
Encoding: 75 75 43
Width: 629
VWidth: 980
Flags: HW
LayerCount: 2
Fore
SplineSet
65 708 m 1
 262 708 l 1
 262 0 l 1
 65 0 l 1
 65 708 l 1
420 708 m 1
 677 708 l 1
 459 354 l 1
 677 0 l 1
 420 0 l 1
 262 354 l 1
 420 708 l 1
EndSplineSet
EndChar

StartChar: L
Encoding: 76 76 44
Width: 564
VWidth: 980
Flags: HW
LayerCount: 2
Fore
SplineSet
65 708 m 1
 262 708 l 1
 262 0 l 1
 65 0 l 1
 65 708 l 1
163 0 m 1
 163 162 l 1
 532 162 l 1
 532 0 l 1
 163 0 l 1
EndSplineSet
EndChar

StartChar: M
Encoding: 77 77 45
Width: 814
VWidth: 980
Flags: HW
LayerCount: 2
Fore
SplineSet
65 708 m 1
 262 708 l 1
 262 0 l 1
 65 0 l 1
 65 708 l 1
573 708 m 1
 770 708 l 1
 770 0 l 1
 573 0 l 1
 573 708 l 1
100 708 m 1
 262 708 l 1
 498 156 l 1
 336 156 l 1
 100 708 l 1
573 708 m 1
 734 708 l 1
 498 156 l 1
 336 156 l 1
 573 708 l 1
EndSplineSet
EndChar

StartChar: N
Encoding: 78 78 46
Width: 694
VWidth: 980
Flags: HW
LayerCount: 2
Fore
SplineSet
65 708 m 1
 262 708 l 1
 262 0 l 1
 65 0 l 1
 65 708 l 1
450 708 m 1
 647 708 l 1
 647 0 l 1
 450 0 l 1
 450 708 l 1
65 708 m 1
 262 708 l 1
 612 0 l 1
 450 0 l 1
 65 708 l 1
EndSplineSet
EndChar

StartChar: O
Encoding: 79 79 47
Width: 716
VWidth: 980
Flags: HW
LayerCount: 2
Fore
SplineSet
367 716 m 1
 581 716 710 572 710 354 c 0
 710 136 581 -8 367 -8 c 0
 153 -8 24 136 24 354 c 0
 24 572 153 716 367 716 c 1
 367 555 l 1
 264 555 222 467 222 354 c 0
 222 241 264 154 367 154 c 0
 470 154 513 241 513 354 c 0
 513 467 470 555 367 555 c 1
 367 716 l 1
EndSplineSet
EndChar

StartChar: P
Encoding: 80 80 48
Width: 651
VWidth: 980
Flags: HW
LayerCount: 2
Fore
SplineSet
65 708 m 1
 262 708 l 1
 262 0 l 1
 65 0 l 1
 65 708 l 1
163 708 m 1
 341 708 l 2
 517 708 643 624 643 460 c 0
 643 296 517 213 341 213 c 2
 163 213 l 1
 163 375 l 1
 341 375 l 2
 402 375 446 403 446 460 c 0
 446 517 402 546 341 546 c 2
 163 546 l 1
 163 708 l 1
EndSplineSet
EndChar

StartChar: Q
Encoding: 81 81 49
Width: 715
VWidth: 980
Flags: HW
LayerCount: 2
Fore
SplineSet
367 716 m 1
 581 716 709 573 709 355 c 0
 709 137 581 -6 367 -6 c 0
 153 -6 24 137 24 355 c 0
 24 573 153 716 367 716 c 1
 367 555 l 1
 265 555 221 468 221 355 c 0
 221 242 265 155 367 155 c 0
 469 155 512 242 512 355 c 0
 512 468 469 555 367 555 c 1
 367 716 l 1
465 2 m 1
 465 -30 518 -30 562 -30 c 2
 610 -30 l 1
 610 -192 l 1
 562 -192 l 2
 415 -192 268 -128 268 2 c 1
 465 2 l 1
EndSplineSet
EndChar

StartChar: R
Encoding: 82 82 50
Width: 651
VWidth: 980
Flags: HW
LayerCount: 2
Fore
SplineSet
65 708 m 1
 262 708 l 1
 262 0 l 1
 65 0 l 1
 65 708 l 1
163 708 m 1
 367 708 l 2
 530 708 643 621 643 464 c 0
 643 307 530 220 367 220 c 2
 163 220 l 1
 163 382 l 1
 367 382 l 2
 416 382 446 414 446 464 c 0
 446 514 416 546 367 546 c 2
 163 546 l 1
 163 708 l 1
466 301 m 1
 643 0 l 1
 446 0 l 1
 269 301 l 1
 466 301 l 1
EndSplineSet
EndChar

StartChar: S
Encoding: 83 83 51
Width: 629
VWidth: 980
Flags: HW
LayerCount: 2
Fore
SplineSet
340 716 m 0
 451 716 556 665 624 578 c 1
 491 485 l 1
 455 532 399 559 340 559 c 0
 288 559 232 549 232 505 c 0
 232 474 250 454 281 450 c 2
 409 432 l 2
 543 413 632 340 632 210 c 0
 632 55 499 -8 327 -8 c 0
 207 -8 92 43 11 131 c 1
 143 224 l 1
 194 179 259 154 327 154 c 0
 385 154 435 160 435 210 c 0
 435 241 417 262 386 266 c 2
 258 284 l 2
 124 303 35 375 35 505 c 0
 35 658 169 716 340 716 c 0
EndSplineSet
EndChar

StartChar: T
Encoding: 84 84 52
Width: 662
VWidth: 980
Flags: HW
LayerCount: 2
Fore
SplineSet
68 546 m 1
 68 708 l 1
 611 708 l 1
 611 546 l 1
 68 546 l 1
241 627 m 1
 438 627 l 1
 438 0 l 1
 241 0 l 1
 241 627 l 1
EndSplineSet
EndChar

StartChar: U
Encoding: 85 85 53
Width: 688
VWidth: 980
Flags: HW
LayerCount: 2
Fore
SplineSet
65 708 m 1
 262 708 l 1
 262 289 l 2
 262 214 286 154 353 154 c 0
 421 154 448 213 448 289 c 2
 448 708 l 1
 642 708 l 1
 642 289 l 2
 642 109 532 -8 353 -8 c 0
 174 -8 65 109 65 289 c 2
 65 708 l 1
EndSplineSet
EndChar

StartChar: V
Encoding: 86 86 54
Width: 711
VWidth: 980
Flags: HW
LayerCount: 2
Fore
SplineSet
33 708 m 1
 230 708 l 1
 404 0 l 1
 266 0 l 1
 33 708 l 1
502 708 m 1
 696 708 l 1
 463 0 l 1
 325 0 l 1
 502 708 l 1
EndSplineSet
EndChar

StartChar: W
Encoding: 87 87 55
Width: 889
VWidth: 980
Flags: HW
LayerCount: 2
Fore
SplineSet
33 708 m 1
 210 708 l 1
 304 213 l 1
 305 0 l 1
 167 0 l 1
 126 213 l 1
 33 708 l 1
206 0 m 1
 247 284 l 1
 287 425 l 1
 368 708 l 1
 506 708 l 1
 465 425 l 1
 424 284 l 1
 344 0 l 1
 206 0 l 1
407 708 m 1
 545 708 l 1
 625 425 l 1
 666 284 l 1
 707 0 l 1
 569 0 l 1
 488 284 l 1
 448 425 l 1
 407 708 l 1
608 0 m 1
 622 284 l 1
 703 708 l 1
 880 708 l 1
 800 284 l 1
 746 0 l 1
 608 0 l 1
EndSplineSet
EndChar

StartChar: X
Encoding: 88 88 56
Width: 716
VWidth: 980
Flags: HW
LayerCount: 2
Fore
SplineSet
18 708 m 1
 232 708 l 1
 467 354 l 1
 720 0 l 1
 506 0 l 1
 270 354 l 1
 18 708 l 1
526 708 m 1
 720 708 l 1
 466 354 l 1
 212 0 l 1
 18 0 l 1
 272 354 l 1
 526 708 l 1
EndSplineSet
EndChar

StartChar: Y
Encoding: 89 89 57
Width: 639
VWidth: 980
Flags: HW
LayerCount: 2
Fore
SplineSet
33 708 m 1
 230 708 l 1
 368 319 l 1
 230 319 l 1
 33 708 l 1
427 708 m 1
 624 708 l 1
 427 319 l 1
 289 319 l 1
 427 708 l 1
230 319 m 1
 427 319 l 1
 427 0 l 1
 230 0 l 1
 230 319 l 1
EndSplineSet
EndChar

StartChar: Z
Encoding: 90 90 58
Width: 651
VWidth: 980
Flags: HW
LayerCount: 2
Fore
SplineSet
65 546 m 1
 65 708 l 1
 603 708 l 1
 603 546 l 1
 65 546 l 1
65 0 m 1
 65 162 l 1
 603 162 l 1
 603 0 l 1
 65 0 l 1
485 666 m 1
 603 546 l 1
 183 43 l 1
 65 162 l 1
 485 666 l 1
EndSplineSet
EndChar

StartChar: bracketleft
Encoding: 91 91 59
Width: 411
VWidth: 980
Flags: HW
LayerCount: 2
Fore
SplineSet
62 757 m 1
 249 757 l 1
 249 -106 l 1
 62 -106 l 1
 62 757 l 1
249 604 m 1
 249 757 l 1
 361 757 l 1
 361 604 l 1
 249 604 l 1
249 -106 m 1
 249 48 l 1
 361 48 l 1
 361 -106 l 1
 249 -106 l 1
EndSplineSet
EndChar

StartChar: backslash
Encoding: 92 92 60
Width: 449
VWidth: 980
Flags: HW
LayerCount: 2
Fore
SplineSet
16 716 m 1
 214 716 l 1
 446 -8 l 1
 248 -8 l 1
 16 716 l 1
EndSplineSet
EndChar

StartChar: bracketright
Encoding: 93 93 61
Width: 411
VWidth: 980
Flags: HW
LayerCount: 2
Fore
SplineSet
174 757 m 1
 361 757 l 1
 361 -106 l 1
 174 -106 l 1
 174 757 l 1
174 604 m 1
 62 604 l 1
 62 757 l 1
 174 757 l 1
 174 604 l 1
174 -106 m 1
 62 -106 l 1
 62 48 l 1
 174 48 l 1
 174 -106 l 1
EndSplineSet
EndChar

StartChar: asciicircum
Encoding: 94 94 62
Width: 529
VWidth: 980
Flags: HW
LayerCount: 2
Fore
SplineSet
24 528 m 1
 185 758 l 1
 358 758 l 1
 519 528 l 1
 432 396 l 1
 271 626 l 1
 271 626 l 1
 111 396 l 1
 24 528 l 1
EndSplineSet
EndChar

StartChar: underscore
Encoding: 95 95 63
Width: 575
VWidth: 980
Flags: HW
LayerCount: 2
Fore
SplineSet
65 0 m 1
 525 0 l 1
 525 -161 l 1
 65 -161 l 1
 65 0 l 1
EndSplineSet
EndChar

StartChar: grave
Encoding: 96 96 64
Width: 291
VWidth: 980
Flags: HW
LayerCount: 2
Fore
SplineSet
53 784 m 1
 245 784 l 1
 332 587 l 1
 159 587 l 1
 53 784 l 1
EndSplineSet
EndChar

StartChar: a
Encoding: 97 97 65
Width: 575
VWidth: 980
Flags: W
HStem: -7 117<137 291> 0 21G<370.012 525> 201 110<218.458 525> 407 127<161.81 318.627>
VStem: 24 188<118.298 193.85> 348 177<164 374.954>
LayerCount: 2
Fore
SplineSet
52 451 m 5x7c
 126 518 193 534 293 534 c 4
 430 534 525 448 525 317 c 6
 525 0 l 5
 377 0 l 5
 348 83 l 5
 348 320 l 6
 348 371 311 407 253 407 c 4
 202 407 157 392 132 361 c 5
 52 451 l 5x7c
525 311 m 5
 525 201 l 5
 278 201 l 6
 241 201 212 197 212 159 c 4
 212 126 230 110 276 110 c 4
 306 110 338 136 348 164 c 5
 348 83 l 5
 314 27 253 -7 187 -7 c 4xbc
 87 -7 24 58 24 159 c 4
 24 268 119 311 241 311 c 6
 525 311 l 5
EndSplineSet
EndChar

StartChar: b
Encoding: 98 98 66
Width: 634
VWidth: 980
Flags: HW
LayerCount: 2
Fore
SplineSet
41 716 m 1
 238 716 l 1
 238 142 l 1
 189 0 l 1
 41 0 l 1
 41 142 l 1
 41 716 l 1
185 368 m 1
 206 465 292 534 392 534 c 0
 544 534 626 422 626 263 c 0
 626 104 544 -8 392 -8 c 0
 292 -8 206 62 185 159 c 1
 238 196 l 1
 249 157 284 130 325 130 c 0
 395 130 428 187 428 263 c 0
 428 339 395 397 325 397 c 0
 284 397 249 370 238 331 c 1
 185 368 l 1
EndSplineSet
EndChar

StartChar: c
Encoding: 99 99 67
Width: 547
VWidth: 980
Flags: HW
LayerCount: 2
Fore
SplineSet
538 395 m 1
 418 311 l 1
 399 363 362 389 307 389 c 0
 239 389 206 335 206 263 c 0
 206 191 239 138 307 138 c 0
 357 138 401 168 418 215 c 1
 538 132 l 1
 493 46 404 -8 307 -8 c 0
 136 -8 24 94 24 263 c 0
 24 432 136 534 307 534 c 0
 415 534 488 490 538 395 c 1
EndSplineSet
EndChar

StartChar: d
Encoding: 100 100 68
Width: 634
VWidth: 980
Flags: HW
LayerCount: 2
Fore
SplineSet
412 716 m 1
 609 716 l 1
 609 142 l 1
 609 0 l 1
 461 0 l 1
 412 142 l 1
 412 716 l 1
465 368 m 1
 412 331 l 1
 401 370 366 397 325 397 c 0
 255 397 222 339 222 263 c 0
 222 187 255 130 325 130 c 0
 366 130 401 157 412 196 c 1
 465 159 l 1
 444 62 358 -8 258 -8 c 0
 106 -8 24 104 24 263 c 0
 24 422 106 534 258 534 c 0
 358 534 444 465 465 368 c 1
EndSplineSet
EndChar

StartChar: e
Encoding: 101 101 69
Width: 591
VWidth: 980
Flags: HW
LayerCount: 2
Fore
SplineSet
562 204 m 1
 395 204 l 1
 395 312 l 2
 395 363 365 397 315 397 c 0
 259 397 222 366 222 312 c 2
 222 258 l 1
 222 204 l 2
 222 151 266 116 321 116 c 0
 373 116 427 133 457 175 c 1
 544 90 l 1
 496 33 410 -7 311 -7 c 0
 137 -7 24 90 24 258 c 0
 24 431 139 534 315 534 c 0
 481 534 575 440 575 272 c 0
 575 238 568 216 562 204 c 1
49 204 m 1
 49 312 l 1
 569 312 l 1
 559 204 l 1
 49 204 l 1
EndSplineSet
EndChar

StartChar: f
Encoding: 102 102 70
Width: 455
VWidth: 980
Flags: W
HStem: 0 21G<117 314> 390 138<33 443> 599 138<325.107 443> 599 129<338.874 443>
VStem: 117 197<0 586.242>
LayerCount: 2
Fore
SplineSet
117 0 m 1xe8
 117 554 l 2
 117 674 209 737 337 737 c 0xe8
 377 737 416 734 455 728 c 1xd8
 443 599 l 1
 378 599 l 2
 323 599 314 575 314 531 c 2
 314 0 l 1
 117 0 l 1xe8
33 528 m 5
 443 528 l 5
 443 390 l 5
 33 390 l 5
 33 528 l 5
EndSplineSet
EndChar

StartChar: g
Encoding: 103 103 71
Width: 595
VWidth: 980
Flags: W
HStem: -192 125<162.431 407.297> 0 142<200.928 410.837> 204 113<176.5 299.589> 204 48<134 257> 378 149<516.201 598> 422 113<215.806 298.194>
VStem: 28 171<74 194.952 331.209 407.081> 398 88<378 475>
LayerCount: 2
Fore
SplineSet
257 535 m 1xe7
 386 535 486 486 486 369 c 0
 486 252 386 204 257 204 c 0
 128 204 28 252 28 369 c 0
 28 486 128 535 257 535 c 1
 257 422 l 1
 225 422 205 401 205 369 c 0
 205 337 225 317 257 317 c 0
 289 317 309 337 309 369 c 0
 309 401 289 422 257 422 c 1
 257 535 l 1xe7
257 252 m 1xd3
 257 204 l 1xe3
 229 204 199 197 199 173 c 0
 199 146 226 142 257 142 c 2
 406 142 l 2
 514 142 590 89 590 -12 c 0
 590 -155 453 -192 289 -192 c 0
 173 -192 93 -165 0 -95 c 1
 81 2 l 5
 146 -49 206 -67 289 -67 c 0
 362 -67 413 -63.99609375 413 -33 c 0
 413 0 375 0 332 0 c 2
 257 0 l 2
 134 0 28 21 28 127 c 0
 28 233 134 252 257 252 c 1xd3
598 527 m 1xcb
 598 378 l 1
 398 378 l 1
 398 475 472 527 575 527 c 2
 598 527 l 1xcb
EndSplineSet
EndChar

StartChar: h
Encoding: 104 104 72
Width: 596
VWidth: 980
Flags: HW
LayerCount: 2
Fore
SplineSet
65 708 m 1
 262 708 l 1
 262 0 l 1
 65 0 l 1
 65 708 l 1
222 349 m 1
 211 459 280 534 391 534 c 0
 509 534 572 446 572 321 c 2
 572 0 l 1
 374 0 l 1
 374 321 l 2
 374 363 361 397 324 397 c 0
 280 397 253 364 262 321 c 1
 222 349 l 1
EndSplineSet
EndChar

StartChar: i
Encoding: 105 105 73
Width: 325
VWidth: 980
Flags: HW
LayerCount: 2
Fore
SplineSet
24 364 m 1
 24 526 l 1
 200 526 l 1
 200 364 l 1
 24 364 l 1
102 526 m 1
 299 526 l 1
 299 0 l 1
 102 0 l 1
 102 526 l 1
304 678 m 0
 304 651 293 624 274 605 c 0
 255 586 227 574 200 574 c 0
 173 574 146 586 127 605 c 0
 108 624 97 651 97 678 c 0
 97 705 108 732 127 751 c 0
 146 770 173 781 200 781 c 0
 227 781 255 770 274 751 c 0
 293 732 304 705 304 678 c 0
EndSplineSet
EndChar

StartChar: j
Encoding: 106 106 74
Width: 292
VWidth: 980
Flags: HW
LayerCount: 2
Fore
SplineSet
64 527 m 1
 261 527 l 1
 261 2 l 2
 261 -125 165 -192 31 -192 c 2
 12 -192 l 1
 12 -30 l 1
 31 -30 l 2
 49 -30 64 -16 64 2 c 2
 64 527 l 1
266 678 m 0
 266 651 254 624 235 605 c 0
 216 586 189 575 162 575 c 0
 135 575 108 586 89 605 c 0
 70 624 59 651 59 678 c 0
 59 705 70 732 89 751 c 0
 108 770 135 781 162 781 c 0
 189 781 216 770 235 751 c 0
 254 732 266 705 266 678 c 0
EndSplineSet
EndChar

StartChar: k
Encoding: 107 107 75
Width: 553
VWidth: 980
Flags: HW
LayerCount: 2
Fore
SplineSet
65 708 m 1
 262 708 l 1
 262 0 l 1
 65 0 l 1
 65 708 l 1
348 526 m 1
 576 526 l 1
 459 263 l 1
 576 0 l 1
 348 0 l 1
 262 263 l 1
 348 526 l 1
361 182 m 1
 163 182 l 1
 163 344 l 1
 361 344 l 1
 361 182 l 1
EndSplineSet
EndChar

StartChar: l
Encoding: 108 108 76
Width: 282
VWidth: 980
Flags: HW
LayerCount: 2
Fore
SplineSet
46 716 m 1
 243 716 l 1
 243 158 l 2
 243 145 254 162 260 162 c 2
 289 162 l 1
 289 0 l 1
 260 0 l 2
 139 0 46 48 46 158 c 2
 46 716 l 1
EndSplineSet
EndChar

StartChar: m
Encoding: 109 109 77
Width: 889
VWidth: 980
Flags: HW
LayerCount: 2
Fore
SplineSet
65 526 m 1
 262 526 l 1
 262 0 l 1
 65 0 l 1
 65 526 l 1
222 377 m 1
 223 464 294 534 381 534 c 0
 474 534 530 469 515 377 c 1
 516 464 587 534 674 534 c 0
 789 534 848 445 848 321 c 2
 848 0 l 1
 650 0 l 1
 650 321 l 2
 650 362 643 397 607 397 c 0
 580 397 558 376 555 349 c 1
 555 321 l 1
 555 0 l 1
 358 0 l 1
 358 321 l 2
 358 362 351 397 315 397 c 0
 288 397 265 376 262 349 c 1
 222 377 l 1
EndSplineSet
EndChar

StartChar: n
Encoding: 110 110 78
Width: 618
VWidth: 980
Flags: HW
LayerCount: 2
Fore
SplineSet
41 526 m 1
 238 526 l 1
 238 0 l 1
 41 0 l 1
 41 526 l 1
198 349 m 1
 203 453 288 534 392 534 c 0
 518 534 594 450 594 321 c 2
 594 0 l 1
 397 0 l 1
 397 321 l 2
 397 367 370 397 325 397 c 0
 281 397 244 364 238 321 c 1
 198 349 l 1
EndSplineSet
EndChar

StartChar: o
Encoding: 111 111 79
Width: 624
VWidth: 980
Flags: HW
LayerCount: 2
Fore
SplineSet
320 534 m 1
 496 534 616 437 616 267 c 0
 616 94 497 -8 320 -8 c 0
 143 -8 24 94 24 267 c 0
 24 437 144 534 320 534 c 1
 320 397 l 1
 252 397 222 341 222 267 c 0
 222 189 250 130 320 130 c 0
 390 130 418 189 418 267 c 0
 418 341 388 397 320 397 c 1
 320 534 l 1
EndSplineSet
EndChar

StartChar: p
Encoding: 112 112 80
Width: 633
VWidth: 980
Flags: HW
LayerCount: 2
Fore
SplineSet
41 527 m 1
 218 527 l 1
 237 422 l 1
 237 -192 l 1
 41 -192 l 1
 41 527 l 1
184 369 m 1
 205 466 292 535 391 535 c 0
 542 535 624 423 624 264 c 0
 624 105 542 -6 391 -6 c 0
 285 -6 196 74 184 179 c 1
 237 216 l 1
 238 169 277 131 324 131 c 0
 394 131 428 188 428 264 c 0
 428 340 394 398 324 398 c 0
 283 398 248 371 237 332 c 1
 184 369 l 1
EndSplineSet
EndChar

StartChar: q
Encoding: 113 113 81
Width: 633
VWidth: 980
Flags: HW
LayerCount: 2
Fore
SplineSet
431 527 m 1
 608 527 l 1
 608 -192 l 1
 411 -192 l 1
 411 422 l 1
 431 527 l 1
464 369 m 1
 411 332 l 1
 400 371 365 398 324 398 c 0
 254 398 221 340 221 264 c 0
 221 188 254 131 324 131 c 0
 371 131 410 169 411 216 c 1
 464 179 l 1
 452 74 364 -6 258 -6 c 0
 107 -6 24 105 24 264 c 0
 24 423 107 535 258 535 c 0
 357 535 443 466 464 369 c 1
EndSplineSet
EndChar

StartChar: r
Encoding: 114 114 82
Width: 391
VWidth: 980
Flags: HW
LayerCount: 2
Fore
SplineSet
65 526 m 1
 262 526 l 1
 262 0 l 1
 65 0 l 1
 65 526 l 1
169 381 m 1
 229 466 279 534 381 534 c 1
 381 373 l 1
 329 373 292 358 262 316 c 1
 169 381 l 1
EndSplineSet
EndChar

StartChar: s
Encoding: 115 115 83
Width: 509
VWidth: 980
Flags: HW
LayerCount: 2
Fore
SplineSet
278 534 m 0
 365 534 447 503 512 445 c 1
 393 361 l 1
 359 384 319 397 278 397 c 0
 242 397 207 403 207 372 c 0
 207 353 226 350 248 348 c 2
 300 343 l 2
 425 333 512 272 512 153 c 0
 512 28 394 -8 251 -8 c 0
 161 -8 75 27 11 90 c 1
 130 174 l 1
 164 146 207 130 251 130 c 0
 292 130 335 115 335 153 c 0
 335 175 312 174 287 176 c 2
 234 181 l 2
 112 191 30 255 30 372 c 0
 30 493 141 534 278 534 c 0
EndSplineSet
EndChar

StartChar: t
Encoding: 116 116 84
Width: 455
VWidth: 980
Flags: HW
LayerCount: 2
Fore
SplineSet
24 364 m 1
 24 526 l 1
 443 526 l 1
 443 364 l 1
 24 364 l 1
117 656 m 1
 314 708 l 1
 314 177 l 2
 314 152 331 138 357 138 c 2
 439 138 l 1
 448 1 l 1
 403 -5 371 -8 326 -8 c 0
 202 -8 117 58 117 177 c 2
 117 656 l 1
EndSplineSet
EndChar

StartChar: u
Encoding: 117 117 85
Width: 618
VWidth: 980
Flags: HW
LayerCount: 2
Fore
SplineSet
397 526 m 1
 594 526 l 1
 594 0 l 1
 397 0 l 1
 397 526 l 1
41 526 m 1
 238 526 l 1
 238 205 l 2
 238 159 264 130 309 130 c 0
 353 130 391 162 397 205 c 1
 450 168 l 1
 437 67 351 -8 249 -8 c 0
 120 -8 41 75 41 205 c 2
 41 526 l 1
EndSplineSet
EndChar

StartChar: v
Encoding: 118 118 86
Width: 602
VWidth: 980
Flags: HW
LayerCount: 2
Fore
SplineSet
33 526 m 1
 230 526 l 1
 348 0 l 1
 210 0 l 1
 33 526 l 1
388 526 m 1
 585 526 l 1
 407 0 l 1
 269 0 l 1
 388 526 l 1
EndSplineSet
EndChar

StartChar: w
Encoding: 119 119 87
Width: 814
VWidth: 980
Flags: HW
LayerCount: 2
Fore
SplineSet
33 526 m 1
 230 526 l 1
 280 158 l 1
 242 0 l 1
 104 0 l 1
 83 158 l 1
 33 526 l 1
163 0 m 1
 265 395 l 1
 158 132 l 1
 319 526 l 1
 457 526 l 1
 355 132 l 1
 462 395 l 1
 301 0 l 1
 163 0 l 1
378 526 m 1
 516 526 l 1
 677 132 l 1
 570 395 l 1
 671 0 l 1
 533 0 l 1
 372 395 l 1
 480 132 l 1
 378 526 l 1
593 0 m 1
 587 395 l 1
 605 526 l 1
 802 526 l 1
 784 395 l 1
 731 0 l 1
 593 0 l 1
EndSplineSet
EndChar

StartChar: x
Encoding: 120 120 88
Width: 558
VWidth: 980
Flags: HW
LayerCount: 2
Fore
SplineSet
18 526 m 1
 231 526 l 1
 387 263 l 1
 558 0 l 1
 346 0 l 1
 190 263 l 1
 18 526 l 1
346 526 m 1
 558 526 l 1
 387 263 l 1
 231 0 l 1
 18 0 l 1
 190 263 l 1
 346 526 l 1
EndSplineSet
EndChar

StartChar: y
Encoding: 121 121 89
Width: 600
VWidth: 980
Flags: HW
LayerCount: 2
Fore
SplineSet
16 527 m 1
 213 527 l 1
 310 264 l 1
 348 2 l 1
 210 2 l 1
 113 264 l 1
 16 527 l 1
403 527 m 1
 600 527 l 1
 503 264 l 1
 407 2 l 1
 269 2 l 1
 307 264 l 1
 403 527 l 1
210 2 m 1
 407 2 l 1
 335 -192 l 1
 138 -192 l 1
 210 2 l 1
EndSplineSet
EndChar

StartChar: z
Encoding: 122 122 90
Width: 564
VWidth: 980
Flags: HW
LayerCount: 2
Fore
SplineSet
65 364 m 1
 65 526 l 1
 514 526 l 1
 514 364 l 1
 65 364 l 1
65 0 m 1
 65 162 l 1
 514 162 l 1
 514 0 l 1
 65 0 l 1
384 470 m 1
 514 364 l 1
 195 57 l 1
 65 162 l 1
 384 470 l 1
EndSplineSet
EndChar

StartChar: braceleft
Encoding: 123 123 91
Width: 359
VWidth: 980
Flags: HW
LayerCount: 2
Fore
SplineSet
349 757 m 1
 349 604 l 1
 305 604 277 576 277 532 c 2
 277 475 l 2
 277 345 164 295 19 295 c 1
 19 403 l 1
 63 403 90 431 90 475 c 2
 90 532 l 2
 90 678 196 757 349 757 c 1
19 357 m 1
 164 357 277 307 277 177 c 2
 277 120 l 2
 277 76 305 48 349 48 c 1
 349 -106 l 1
 196 -106 90 -26 90 120 c 2
 90 177 l 2
 90 221 63 249 19 249 c 1
 19 357 l 1
EndSplineSet
EndChar

StartChar: bar
Encoding: 124 124 92
Width: 370
VWidth: 980
Flags: HW
LayerCount: 2
Fore
SplineSet
94 784 m 1
 286 784 l 1
 286 -103 l 1
 94 -103 l 1
 94 784 l 1
EndSplineSet
EndChar

StartChar: braceright
Encoding: 125 125 93
Width: 360
VWidth: 980
Flags: HW
LayerCount: 2
Fore
SplineSet
23 605 m 1
 23 759 l 1
 176 759 282 679 282 533 c 2
 282 475 l 2
 282 431 311 403 355 403 c 1
 355 250 l 1
 202 250 95 329 95 475 c 2
 95 533 l 2
 95 577 67 605 23 605 c 1
355 250 m 1
 311 250 282 222 282 178 c 2
 282 120 l 2
 282 -26 176 -106 23 -106 c 1
 23 48 l 1
 67 48 95 76 95 120 c 2
 95 178 l 2
 95 308 210 357 355 357 c 1
 355 250 l 1
EndSplineSet
EndChar

StartChar: asciitilde
Encoding: 126 126 94
Width: 678
VWidth: 980
Flags: HW
LayerCount: 2
Fore
SplineSet
24 158 m 1
 24 271 108 368 218 368 c 0
 287 368 335 358 397 328 c 1
 299 199 l 1
 270 205 248 207 218 207 c 0
 196 207 186 182 186 158 c 1
 24 158 l 1
671 368 m 1
 671 255 587 158 477 158 c 0
 408 158 361 169 299 199 c 1
 397 328 l 1
 426 322 447 320 477 320 c 0
 499 320 509 344 509 368 c 1
 671 368 l 1
EndSplineSet
EndChar
